PathFileType	4	(X/Y/Z)	./resultDataOpenSim/trcMotMarkerGrf/sub06/qtm-13-04.trc
DataRate	CameraRate	NumFrames	NumMarkers	Units	OrigDataRate	OrigDataStartFrame	OrigNumFrames
250.000000	250.000000	11	24	m	250.000000	1	533
Frame#	Time	L.Toe.Tip			R.Toe.Tip			L.Ankle.Lat			R.Ankle.Lat			L.Ankle.Med			R.Ankle.Med			L.Heel			R.Heel			L.Knee.Lat			R.Knee.Lat			L.Knee.Med			R.Knee.Med			L.Thigh.Upper			R.Thigh.Upper			L.ASIS			R.ASIS			V.Sacral			L.Acromium			R.Acromium			C7			L.Elbow			R.Elbow			L.Wrist.Lat			R.Wrist.Lat
		X1	Y1	Z1	X2	Y2	Z2	X3	Y3	Z3	X4	Y4	Z4	X5	Y5	Z5	X6	Y6	Z6	X7	Y7	Z7	X8	Y8	Z8	X9	Y9	Z9	X10	Y10	Z10	X11	Y11	Z11	X12	Y12	Z12	X13	Y13	Z13	X14	Y14	Z14	X15	Y15	Z15	X16	Y16	Z16	X17	Y17	Z17	X18	Y18	Z18	X19	Y19	Z19	X20	Y20	Z20	X21	Y21	Z21	X22	Y22	Z22	X23	Y23	Z23	X24	Y24	Z24

1	0	-1.5075858	0.031819968	-0.10508326	-1.2801115	0.064737183	0.10825854	-1.6322283	0.068616066	-0.11646284	-1.4109056	0.099871984	0.10719844	-1.624403	0.080804758	-0.03283649	-1.3737352	0.1178452	0.025552764	NaN	NaN	NaN	-1.4529719	0.078678551	0.03564272	-1.5258706	0.42569685	-0.13806708	-1.3155201	0.48135251	0.12350669	-1.5464062	0.43153533	-0.015658122	-1.3318133	0.46381504	-0.0020877759	-1.4944987	0.81568191	-0.20845237	-1.4802644	0.82014725	0.14242914	-1.4146575	0.85864891	-0.16517043	-1.3952511	0.8689569	0.075729827	-1.5807365	0.94960847	-0.024532773	-1.4283332	1.3488313	-0.22411232	-1.4287332	1.3403422	0.13663378	-1.5062664	1.3804365	-0.043687187	-1.4498418	1.0267413	-0.28763969	-1.5272252	1.0411056	0.21831358	-1.2418846	0.88557282	-0.27574109	-1.3736646	0.84662551	0.22801305
2	0.004	-1.5075817	0.031795479	-0.10504987	-1.2619617	0.065232771	0.10762978	-1.6321273	0.068739593	-0.11628753	-1.3917181	0.097786132	0.10707536	-1.6240973	0.080916269	-0.03272961	-1.35696	0.11610228	0.024971938	NaN	NaN	NaN	-1.434823	0.075020385	0.034811406	-1.5246391	0.42536068	-0.13798736	-1.3084305	0.48119456	0.12272452	-1.5445797	0.4313699	-0.01561008	-1.3250159	0.46325311	-0.0029100645	-1.4892589	0.81491929	-0.20803648	-1.4745491	0.81949463	0.14255488	-1.4096779	0.85762462	-0.16542548	-1.3910224	0.86801717	0.075484971	-1.5752373	0.94876192	-0.024213453	-1.4229722	1.3480447	-0.22407646	-1.4239592	1.3393735	0.1366828	-1.5011452	1.3796071	-0.04385048	-1.4423047	1.0257259	-0.28825746	-1.5237591	1.0404337	0.218003	-1.2326171	0.88726035	-0.27474399	-1.3713686	0.84507595	0.22808769
3	0.008	-1.5075817	0.031779295	-0.10501764	-1.2438523	0.065830723	0.10696301	-1.6320536	0.068890369	-0.11610885	-1.3733604	0.095492059	0.1067816	-1.623775	0.081021175	-0.03261824	-1.3401495	0.11444516	0.024391872	NaN	NaN	NaN	-1.4167102	0.071440818	0.034069315	-1.5233615	0.42501464	-0.13791847	-1.301448	0.48095805	0.12195658	-1.542959	0.43119039	-0.015565238	-1.3182587	0.46260828	-0.0037151818	-1.4840954	0.8140908	-0.20784781	-1.4688518	0.8187954	0.14267294	-1.4046631	0.85657835	-0.16566508	-1.3866602	0.86705162	0.075269984	-1.5696924	0.94783462	-0.023917255	-1.4176057	1.3471974	-0.22404932	-1.419157	1.3383376	0.13673796	-1.496041	1.378751	-0.043909005	-1.4348251	1.0246674	-0.28899167	-1.5203275	1.0397674	0.21770171	-1.2233699	0.88891847	-0.27372274	-1.3691434	0.84350317	0.22816677
4	0.012	-1.5075869	0.031772124	-0.10498566	-1.2257776	0.066576763	0.10624401	-1.632021	0.069074609	-0.1159317	-1.3558803	0.093033436	0.10631188	-1.6234061	0.081121613	-0.032506981	-1.323297	0.11293105	0.023825981	NaN	NaN	NaN	-1.3986112	0.068017754	0.03344379	-1.5220071	0.42465143	-0.13787175	-1.2946253	0.48058254	0.12119941	-1.541444	0.43099066	-0.015533952	-1.3115449	0.46182619	-0.0045169092	-1.4790232	0.81316687	-0.20791118	-1.463169	0.81799612	0.14278347	-1.3995792	0.85550303	-0.16587222	-1.3818437	0.86608362	0.075151725	-1.56407	0.94682323	-0.023579105	-1.4122313	1.3462689	-0.22404049	-1.4143227	1.3372066	0.13680611	-1.4909228	1.3778481	-0.043857703	-1.4274673	1.0235229	-0.29002632	-1.516914	1.0390729	0.21740469	-1.2141585	0.89053234	-0.27266608	-1.3670127	0.84187817	0.22825009
5	0.016	-1.5075937	0.031767674	-0.10495063	-1.2077228	0.067472352	0.1054911	-1.6320192	0.069274542	-0.11576511	-1.338819	0.090614015	0.10578069	-1.6230036	0.081216479	-0.032397236	-1.3064911	0.11158423	0.023316438	NaN	NaN	NaN	-1.3805172	0.064811588	0.032914956	-1.5205586	0.42426004	-0.13785541	-1.28797	0.48003928	0.12044018	-1.5397796	0.43076666	-0.015526073	-1.3048641	0.46089415	-0.0053405155	-1.4739892	0.81216716	-0.20805103	-1.4574826	0.81705492	0.14289091	-1.3944309	0.85439084	-0.16604397	-1.3764394	0.86511908	0.075163469	-1.5584533	0.94573685	-0.02319697	-1.4068513	1.345266	-0.22404889	-1.4094679	1.3359844	0.13688866	-1.485738	1.3768925	-0.04376952	-1.4202354	1.0222653	-0.29141132	-1.5134869	1.0383112	0.21710144	-1.2050083	0.8920882	-0.27157958	-1.3649287	0.84017495	0.22832878
6	0.02	-1.5075957	0.031758564	-0.10491083	-1.1896392	0.068520836	0.10473305	-1.6320198	0.069463196	-0.1156132	-1.3217777	0.088385049	0.10528653	-1.6226401	0.08130041	-0.032283293	-1.2898878	0.11041043	0.022936723	NaN	NaN	NaN	-1.3624369	0.061844092	0.032472426	-1.5190032	0.42382692	-0.13786054	-1.2814374	0.47932877	0.11967069	-1.537896	0.4305069	-0.015540461	-1.2982018	0.45981637	-0.0061878573	-1.468933	0.81111155	-0.20809296	-1.4517528	0.8159586	0.14300053	-1.3892549	0.85322245	-0.16619798	-1.3706344	0.86410602	0.075264601	-1.5531087	0.94451657	-0.023020558	-1.4014565	1.3441895	-0.22406338	-1.4045769	1.3346731	0.13697969	-1.4804651	1.3758828	-0.043716575	-1.4129643	1.0208992	-0.29283328	-1.5100256	1.0374566	0.2167912	-1.1959267	0.89356472	-0.27047811	-1.3628164	0.83837134	0.22839204
7	0.024	-1.5075885	0.031741241	-0.10487132	-1.1714991	0.06973852	0.10397455	-1.6319949	0.069624358	-0.1154782	-1.3045948	0.08640555	0.10486429	-1.6223898	0.081379815	-0.032164558	-1.2736098	0.10941429	0.022741683	NaN	NaN	NaN	-1.3443969	0.059102068	0.032143597	-1.5173362	0.42334361	-0.13786109	-1.2749352	0.47847177	0.1188974	-1.5359351	0.43019247	-0.01556698	-1.2915532	0.45860135	-0.0070517468	-1.4638582	0.80998558	-0.20802902	-1.4459454	0.81473101	0.14311062	-1.3840778	0.851986	-0.16635115	-1.3646653	0.86299191	0.075399334	-1.5483483	0.94308735	-0.023458855	-1.3960384	1.3430322	-0.22408005	-1.3996196	1.3332722	0.13707828	-1.4751281	1.3748142	-0.043727025	-1.4054769	1.0194549	-0.29392542	-1.5065163	1.0364927	0.21648342	-1.186906	0.8949437	-0.26937695	-1.3606341	0.83646336	0.22843808
8	0.028	-1.5075715	0.031717572	-0.104842	-1.153373	0.071135713	0.10318909	-1.6319225	0.069762575	-0.11537175	-1.2872379	0.084705708	0.10451519	-1.6222649	0.081478165	-0.032048944	-1.2575796	0.10860628	0.022680861	NaN	NaN	NaN	-1.3264264	0.056560203	0.031953058	-1.5155605	0.42281217	-0.1378465	-1.2683744	0.4775007	0.11813443	-1.5339777	0.42980884	-0.015598734	-1.2849242	0.45727129	-0.0079449206	-1.4587859	0.80877352	-0.20795112	-1.4400633	0.81342095	0.14320451	-1.3788761	0.8506897	-0.16649532	-1.3586607	0.86176698	0.075543503	-1.5441475	0.94145714	-0.024626696	-1.3905954	1.3417897	-0.22410595	-1.3945865	1.3317919	0.13719079	-1.4697545	1.3736833	-0.043772823	-1.3978085	1.0179613	-0.29469561	-1.5029388	1.035427	0.21618095	-1.1779395	0.8962243	-0.26828446	-1.3583824	0.83447572	0.22847501
9	0.032	-1.5075466	0.03169281	-0.10483064	-1.1354031	0.072710405	0.10235216	-1.6317681	0.069893788	-0.11532384	-1.2697061	0.083325299	0.10424441	-1.6221864	0.081622021	-0.031946814	-1.2415513	0.10800102	0.022615197	NaN	NaN	NaN	-1.3085385	0.054229959	0.031862685	-1.5136782	0.4222488	-0.13784081	-1.2617485	0.47644393	0.11738054	-1.5319242	0.42936752	-0.015639804	-1.2783183	0.45585134	-0.0088787154	-1.4536976	0.80748552	-0.20790452	-1.4341343	0.81205334	0.14326479	-1.3735958	0.84935191	-0.16660841	-1.3526651	0.86044493	0.075689264	-1.5399264	0.93969492	-0.025935676	-1.3851249	1.3404645	-0.22414696	-1.3894889	1.3302496	0.13731352	-1.4643539	1.3724914	-0.043808606	-1.3901103	1.0164362	-0.29532071	-1.4992376	1.0342775	0.2158581	-1.1690264	0.89741842	-0.26720266	-1.3560775	0.83243898	0.22851065
10	0.036	-1.5075165	0.031670326	-0.10483804	-1.1176695	0.07447307	0.10147593	-1.6314847	0.070031152	-0.11537651	-1.2519606	0.082319732	0.10408314	-1.6220561	0.081814939	-0.031865049	-1.2253732	0.10760961	0.022452229	NaN	NaN	NaN	-1.2907345	0.052169267	0.031794485	-1.5116858	0.42166844	-0.13786965	-1.2551396	0.4753036	0.11661356	-1.5296642	0.42890961	-0.015698958	-1.2717308	0.45435064	-0.0098409785	-1.4485855	0.80612497	-0.20787818	-1.4281817	0.81059972	0.14329108	-1.3682225	0.84798184	-0.16669091	-1.3467066	0.85902695	0.075826539	-1.5349921	0.93782063	-0.026494583	-1.3796165	1.3390632	-0.22420213	-1.3843346	1.3286526	0.13742926	-1.4589304	1.3712422	-0.043826106	-1.38245	1.0148918	-0.29584859	-1.4953152	1.033033	0.21544242	-1.1601686	0.89853562	-0.2661313	-1.3537215	0.83036131	0.22854533
11	0.04	-1.5074829	0.031647647	-0.10485659	-1.1001303	0.076464418	0.10059727	-1.6310752	0.070183036	-0.11553501	-1.2339518	0.081719611	0.10406638	-1.6218519	0.082029772	-0.031803628	-1.2091036	0.10743681	0.022204362	NaN	NaN	NaN	-1.2730222	0.050416114	0.031712437	-1.5095776	0.42106579	-0.13792902	-1.2486263	0.47405806	0.11581722	-1.5272111	0.42846811	-0.015777594	-1.2651598	0.45277134	-0.010815242	-1.4435031	0.80467784	-0.2078634	-1.4222069	0.80902939	0.14328836	-1.3628037	0.84657527	-0.16676905	-1.3408447	0.85749802	0.075951182	-1.5292374	0.93582094	-0.026071643	-1.374055	1.3375896	-0.22426535	-1.3791191	1.326989	0.13752794	-1.4534849	1.3699463	-0.043831688	-1.3748174	1.0133316	-0.29628489	-1.491091	1.0316598	0.21480535	-1.1513717	0.89957494	-0.26507089	-1.3513066	0.82823274	0.22857556
